<svg width="24" height="24" viewBox="0 0 24 24" fill="none" xmlns="http://www.w3.org/2000/svg">
<path d="M16 19C16 16.8 14.2 15 12 15C9.8 15 8 16.8 8 19" stroke="#94A3B8" stroke-width="2.25" stroke-linecap="round" stroke-linejoin="round"/>
<path d="M12 12.2C13.7673 12.2 15.2 10.7674 15.2 9.00005C15.2 7.23274 13.7673 5.80005 12 5.80005C10.2327 5.80005 8.79999 7.23274 8.79999 9.00005C8.79999 10.7674 10.2327 12.2 12 12.2Z" stroke="#94A3B8" stroke-width="2.25" stroke-linecap="round" stroke-linejoin="round"/>
<path d="M19 18C19 16.5 18.1 15.2 16.8 14.6" stroke="#94A3B8" stroke-width="2.25" stroke-linecap="round" stroke-linejoin="round"/>
<path d="M17 6.59998C17.4738 6.7974 17.8786 7.13066 18.1633 7.55775C18.4481 7.98485 18.6 8.48667 18.6 8.99998C18.6 9.51328 18.4481 10.0151 18.1633 10.4422C17.8786 10.8693 17.4738 11.2026 17 11.4" stroke="#94A3B8" stroke-width="2.25" stroke-linecap="round" stroke-linejoin="round"/>
<path d="M5 18C5 16.5 5.9 15.2 7.2 14.6" stroke="#94A3B8" stroke-width="2.25" stroke-linecap="round" stroke-linejoin="round"/>
<path d="M6.99999 6.59998C6.52617 6.7974 6.12139 7.13066 5.83666 7.55775C5.55193 7.98485 5.39999 8.48667 5.39999 8.99998C5.39999 9.51328 5.55193 10.0151 5.83666 10.4422C6.12139 10.8693 6.52617 11.2026 6.99999 11.4" stroke="#94A3B8" stroke-width="2.25" stroke-linecap="round" stroke-linejoin="round"/>
</svg>
