<svg width="24" height="24" viewBox="0 0 24 24" fill="none" xmlns="http://www.w3.org/2000/svg">
<path d="M12 21C12 21 18 15.65 18 10C18 8.4087 17.3679 6.88258 16.2426 5.75736C15.1174 4.63214 13.5913 4 12 4C10.4087 4 8.88258 4.63214 7.75736 5.75736C6.63214 6.88258 6 8.4087 6 10C6 15.65 12 21 12 21Z" stroke="#3384FC" stroke-width="2.25" stroke-linecap="round" stroke-linejoin="round"/>
<path d="M12 12.3C13.2703 12.3 14.3 11.2702 14.3 9.99995C14.3 8.7297 13.2703 7.69995 12 7.69995C10.7298 7.69995 9.70001 8.7297 9.70001 9.99995C9.70001 11.2702 10.7298 12.3 12 12.3Z" stroke="#3384FC" stroke-width="2.25" stroke-linecap="round" stroke-linejoin="round"/>
</svg>
